<?xml version="1.0" encoding="UTF-8"?>
<!DOCTYPE svg PUBLIC "-//W3C//DTD SVG 1.1//EN" "http://www.w3.org/Graphics/SVG/1.1/DTD/svg11.dtd">
<svg xmlns="http://www.w3.org/2000/svg" version="1.1" width="200px" height="200px" style="shape-rendering:geometricPrecision; text-rendering:geometricPrecision; image-rendering:optimizeQuality; fill-rule:evenodd; clip-rule:evenodd" xmlns:xlink="http://www.w3.org/1999/xlink">
<g><path style="opacity:0.004" fill="#a2a2a2" d="M 101.5,33.5 C 101.897,32.475 102.563,32.3083 103.5,33C 102.906,33.4643 102.239,33.631 101.5,33.5 Z"/></g>
<g><path style="opacity:0.004" fill="#fefffe" d="M 79.5,35.5 C 81.2884,34.3775 83.2884,34.2109 85.5,35C 83.5273,35.4955 81.5273,35.6621 79.5,35.5 Z"/></g>
<g><path style="opacity:0.004" fill="#fefffe" d="M 123.5,34.5 C 124.833,35.1667 124.833,35.1667 123.5,34.5 Z"/></g>
<g><path style="opacity:0.993" fill="#ebebeb" d="M 116.5,39.5 C 117.795,40.4884 119.128,41.4884 120.5,42.5C 120.5,43.1667 120.833,43.5 121.5,43.5C 121.56,44.0431 121.893,44.3764 122.5,44.5C 123.788,42.7015 123.788,41.0348 122.5,39.5C 122.5,38.5 122.5,37.5 122.5,36.5C 123.552,36.3505 124.552,36.5172 125.5,37C 128.531,39.5081 131.531,42.0081 134.5,44.5C 134.427,46.0269 135.094,47.0269 136.5,47.5C 136.783,48.2891 137.283,48.9558 138,49.5C 138.196,47.7139 139.029,46.3805 140.5,45.5C 141.945,47.3936 143.612,49.0603 145.5,50.5C 145.328,51.4916 145.662,52.1583 146.5,52.5C 146.402,54.5529 147.069,56.2196 148.5,57.5C 148.232,59.099 148.566,60.4324 149.5,61.5C 149.376,67.0687 150.043,72.402 151.5,77.5C 153.196,78.5252 154.196,80.1919 154.5,82.5C 155.514,83.6737 156.847,84.3404 158.5,84.5C 164.584,84.9474 166.918,88.2807 165.5,94.5C 164.662,94.8417 164.328,95.5084 164.5,96.5C 163.5,98.1667 162.167,99.5 160.5,100.5C 159.833,100.5 159.5,100.833 159.5,101.5C 158.508,101.328 157.842,101.662 157.5,102.5C 156.508,102.328 155.842,102.662 155.5,103.5C 152.572,103.565 149.905,104.232 147.5,105.5C 146.209,105.263 145.209,105.596 144.5,106.5C 142.585,106.216 140.919,106.549 139.5,107.5C 138.209,107.263 137.209,107.596 136.5,108.5C 135.209,108.263 134.209,108.596 133.5,109.5C 131.207,110.301 131.54,110.968 134.5,111.5C 135.604,113.389 136.937,115.055 138.5,116.5C 138.328,117.492 138.662,118.158 139.5,118.5C 139.5,119.5 139.5,120.5 139.5,121.5C 138.373,122.122 137.373,122.955 136.5,124C 126.506,124.5 116.506,124.666 106.5,124.5C 104.854,122.188 102.854,120.188 100.5,118.5C 96.6973,119.104 93.0306,119.77 89.5,120.5C 88.1667,120.5 86.8333,120.5 85.5,120.5C 85.5,121.5 85.5,122.5 85.5,123.5C 79.0437,123.597 72.3771,123.597 65.5,123.5C 62.1946,121.258 58.5279,120.424 54.5,121C 55.8333,121.333 57.1667,121.667 58.5,122C 54.7203,122.918 51.0536,123.751 47.5,124.5C 46.8333,124.5 46.5,124.833 46.5,125.5C 43.8333,125.5 41.1667,125.5 38.5,125.5C 38.5,124.5 38.5,123.5 38.5,122.5C 39.404,121.791 39.7373,120.791 39.5,119.5C 40.782,118.292 40.782,116.958 39.5,115.5C 38.8933,115.624 38.56,115.957 38.5,116.5C 37.8333,116.5 37.5,116.833 37.5,117.5C 35.8967,117.688 34.5634,117.188 33.5,116C 34.1378,111.291 35.1378,106.625 36.5,102C 36.2517,100.251 35.2517,99.4176 33.5,99.5C 31.2116,97.1455 31.045,94.4788 33,91.5C 36.6189,83.919 41.4522,77.2523 47.5,71.5C 48.4916,71.6716 49.1583,71.3382 49.5,70.5C 50.2891,70.2172 50.9558,69.7172 51.5,69C 39.1043,69.6903 37.771,66.6903 47.5,60C 52.1373,57.5111 56.804,55.3445 61.5,53.5C 64.1667,53.1667 64.1667,52.8333 61.5,52.5C 61.1583,51.6618 60.4916,51.3284 59.5,51.5C 58.2196,50.0687 56.5529,49.4021 54.5,49.5C 54.5,48.5 54.5,47.5 54.5,46.5C 55.791,46.7373 56.791,46.404 57.5,45.5C 65.1417,44.8082 72.8084,44.3082 80.5,44C 74.5,43.6667 68.5,43.3333 62.5,43C 68.1667,42.6667 73.8333,42.3333 79.5,42C 79.8333,41.6667 80.1667,41.3333 80.5,41C 78.9632,39.8904 78.2965,38.3904 78.5,36.5C 85.4087,36.6817 92.0754,38.0151 98.5,40.5C 99.209,41.404 100.209,41.7373 101.5,41.5C 101.833,42.8333 102.167,42.8333 102.5,41.5C 103.833,40.8333 103.833,40.1667 102.5,39.5C 102.672,38.5084 102.338,37.8417 101.5,37.5C 101.281,36.325 101.614,35.325 102.5,34.5C 107.19,36.174 111.857,37.8406 116.5,39.5 Z M 122.5,39.5 C 123.788,41.0348 123.788,42.7015 122.5,44.5C 121.893,44.3764 121.56,44.0431 121.5,43.5C 122.434,42.4324 122.768,41.099 122.5,39.5 Z"/></g>
<g><path style="opacity:0.004" fill="#fefffe" d="M 100.5,37.5 C 99.8333,36.1667 99.8333,36.1667 100.5,37.5 Z"/></g>
<g><path style="opacity:0.004" fill="#fefffe" d="M 76.5,37.5 C 77.8333,38.1667 77.8333,38.1667 76.5,37.5 Z"/></g>
<g><path style="opacity:0.004" fill="#fefffe" d="M 100.5,37.5 C 100.833,37.5 101.167,37.5 101.5,37.5C 101.328,38.4916 101.662,39.1583 102.5,39.5C 102.5,40.1667 102.5,40.8333 102.5,41.5C 102.167,41.5 101.833,41.5 101.5,41.5C 100.791,40.596 99.791,40.2627 98.5,40.5C 99.5511,39.7777 100.218,38.7777 100.5,37.5 Z"/></g>
<g><path style="opacity:0.004" fill="#fefffe" d="M 116.5,38.5 C 117.833,39.1667 117.833,39.1667 116.5,38.5 Z"/></g>
<g><path style="opacity:0.004" fill="#4e4e4e" d="M 121.5,39.5 C 120.475,39.1034 120.308,38.4368 121,37.5C 121.464,38.0944 121.631,38.7611 121.5,39.5 Z"/></g>
<g><path style="opacity:0.006" fill="#fefffe" d="M 121.5,39.5 C 121.833,39.5 122.167,39.5 122.5,39.5C 122.768,41.099 122.434,42.4324 121.5,43.5C 120.833,43.5 120.5,43.1667 120.5,42.5C 121.11,41.609 121.443,40.609 121.5,39.5 Z"/></g>
<g><path style="opacity:0.004" fill="#b8b8b8" d="M 57.5,44.5 C 58.2506,43.4265 59.2506,43.2599 60.5,44C 59.552,44.4828 58.552,44.6495 57.5,44.5 Z"/></g>
<g><path style="opacity:0.004" fill="#fefffe" d="M 134.5,43.5 C 135.833,44.1667 135.833,44.1667 134.5,43.5 Z"/></g>
<g><path style="opacity:0.004" fill="#000000" d="M 139.5,43.5 C 140.833,44.1667 140.833,44.1667 139.5,43.5 Z"/></g>
<g><path style="opacity:0.004" fill="#fefffe" d="M 57.5,44.5 C 57.5,44.8333 57.5,45.1667 57.5,45.5C 54.8333,45.1667 54.8333,44.8333 57.5,44.5 Z"/></g>
<g><path style="opacity:0.008" fill="#fefffe" d="M 136.5,46.5 C 137.833,47.1667 137.833,47.1667 136.5,46.5 Z"/></g>
<g><path style="opacity:0.004" fill="#fefffe" d="M 145.5,49.5 C 146.833,50.1667 146.833,50.1667 145.5,49.5 Z"/></g>
<g><path style="opacity:0.004" fill="#fefffe" d="M 146.5,51.5 C 147.833,52.1667 147.833,52.1667 146.5,51.5 Z"/></g>
<g><path style="opacity:0.007" fill="#e5e5e5" d="M 59.5,51.5 C 59.8417,52.3382 60.5084,52.6716 61.5,52.5C 61.5,52.8333 61.5,53.1667 61.5,53.5C 59.8967,53.6882 58.5634,53.1882 57.5,52C 58.0944,51.5357 58.7611,51.369 59.5,51.5 Z"/></g>
<g><path style="opacity:0.004" fill="#fefffe" d="M 55.5,54.5 C 55.8966,53.475 56.5632,53.3083 57.5,54C 56.9056,54.4643 56.2389,54.631 55.5,54.5 Z"/></g>
<g><path style="opacity:0.004" fill="#fefffe" d="M 147.5,53.5 C 148.833,54.1667 148.833,54.1667 147.5,53.5 Z"/></g>
<g><path style="opacity:0.004" fill="#fefffe" d="M 148.5,57.5 C 148.369,56.7611 148.536,56.0944 149,55.5C 149.692,56.4368 149.525,57.1034 148.5,57.5 Z"/></g>
<g><path style="opacity:0.004" fill="#fefffe" d="M 149.5,61.5 C 149.351,60.448 149.517,59.448 150,58.5C 150.74,59.7494 150.573,60.7494 149.5,61.5 Z"/></g>
<g><path style="opacity:1" fill="#161616" d="M 119.5,118.5 C 116.375,119.479 113.042,119.813 109.5,119.5C 107.109,117.106 104.443,115.106 101.5,113.5C 93.879,114.808 86.2124,115.808 78.5,116.5C 78.8627,117.183 79.1961,117.85 79.5,118.5C 75.7016,119.483 71.7016,119.817 67.5,119.5C 63.9669,117.045 59.9669,115.878 55.5,116C 56.5266,115.487 57.5266,114.987 58.5,114.5C 71.8085,113.741 85.1418,113.241 98.5,113C 99.7702,112.1 100.77,110.934 101.5,109.5C 104.507,108.663 107.174,107.33 109.5,105.5C 111.052,104.378 112.718,103.878 114.5,104C 113.24,105.814 113.24,107.647 114.5,109.5C 120.873,107.098 127.206,104.598 133.5,102C 132.167,101.333 130.833,100.667 129.5,100C 128.549,99.2825 128.383,98.4491 129,97.5C 131.615,99.6404 134.615,100.64 138,100.5C 143.034,98.9509 148.201,97.7842 153.5,97C 157.048,95.4941 157.381,93.3274 154.5,90.5C 149.14,88.276 145.474,84.4426 143.5,79C 137.063,76.4185 131.063,73.2518 125.5,69.5C 121.899,70.4362 120.233,72.7695 120.5,76.5C 120.279,79.7911 121.613,82.2911 124.5,84C 118.667,87.055 112.667,89.7217 106.5,92C 108.246,92.4709 109.913,93.1376 111.5,94C 97.0491,98.7575 82.3825,102.757 67.5,106C 58.9243,109.257 51.4243,114.09 45,120.5C 45.6361,113.047 48.1361,106.214 52.5,100C 51.8333,99.3333 51.1667,99.3333 50.5,100C 37.7782,112.13 35.9449,110.297 45,94.5C 48.2194,90.2502 51.0527,86.2502 53.5,82.5C 48.6386,84.1804 44.1386,86.5137 40,89.5C 39.8333,89.1667 39.6667,88.8333 39.5,88.5C 46.7379,78.2474 55.7379,70.2474 66.5,64.5C 64.5,64.5 62.5,64.5 60.5,64.5C 57.5,63.8333 54.5,63.1667 51.5,62.5C 59.7559,58.7694 68.4226,56.6027 77.5,56C 74.672,53.7519 71.672,51.7519 68.5,50C 77.2713,49.0867 85.7713,50.2534 94,53.5C 94.5,53.1667 95,52.8333 95.5,52.5C 93.5729,49.65 91.4062,46.9833 89,44.5C 88.3123,43.6683 88.479,43.0016 89.5,42.5C 98.5571,45.5278 106.89,49.8612 114.5,55.5C 114.885,50.5672 113.218,46.2339 109.5,42.5C 109.833,42.1667 110.167,41.8333 110.5,41.5C 117.308,45.6612 123.475,50.6612 129,56.5C 129.333,53.5 129.667,50.5 130,47.5C 133.755,52.0026 136.755,57.0026 139,62.5C 140.275,60.2827 141.275,57.9494 142,55.5C 144.886,62.8651 146.22,70.5318 146,78.5C 148.397,85.4422 153.231,89.1088 160.5,89.5C 161.154,93.6826 159.488,96.516 155.5,98C 144.944,100.041 134.777,103.207 125,107.5C 124.164,112.027 125.997,114.527 130.5,115C 131.687,116.019 132.687,117.186 133.5,118.5C 129.878,119.659 126.211,119.825 122.5,119C 119.984,116.317 117.317,113.817 114.5,111.5C 113.417,112.365 113.251,113.365 114,114.5C 116.463,115.032 118.297,116.366 119.5,118.5 Z"/></g>
<g><path style="opacity:1" fill="#ca9663" d="M 86.5,52.5 C 90.9485,53.8919 95.2819,55.5586 99.5,57.5C 100.167,58.1667 100.833,58.8333 101.5,59.5C 97.1883,58.0145 92.8549,56.5145 88.5,55C 87.244,54.5831 86.5774,53.7498 86.5,52.5 Z"/></g>
<g><path style="opacity:1" fill="#dc914a" d="M 84.5,52.5 C 85.1667,52.5 85.8333,52.5 86.5,52.5C 86.5774,53.7498 87.244,54.5831 88.5,55C 92.8549,56.5145 97.1883,58.0145 101.5,59.5C 103.55,68.9605 108.55,76.2938 116.5,81.5C 117.167,81.5 117.5,81.8333 117.5,82.5C 115.073,82.477 112.74,81.977 110.5,81C 102.081,76.1238 93.4144,71.7905 84.5,68C 78.7469,67.1492 73.0802,67.4826 67.5,69C 61.2809,72.2709 55.2809,75.7709 49.5,79.5C 55.6644,73.2438 62.9977,68.7438 71.5,66C 69.9751,64.9914 68.3084,64.4914 66.5,64.5C 64.0458,63.3794 61.3791,62.546 58.5,62C 60.4899,60.2494 62.8232,59.2494 65.5,59C 71.5,58.6667 77.5,58.3333 83.5,58C 81.3395,57.0041 79.6728,55.5041 78.5,53.5C 80.2646,52.5386 82.2646,52.2053 84.5,52.5 Z"/></g>
<g><path style="opacity:1" fill="#65837b" d="M 142.5,76.5 C 142.67,75.1779 142.337,74.0113 141.5,73C 136.876,71.6895 132.876,69.3562 129.5,66C 118.07,64.9773 113.737,70.144 116.5,81.5C 108.55,76.2938 103.55,68.9605 101.5,59.5C 100.833,58.8333 100.167,58.1667 99.5,57.5C 99.9382,57.5654 100.272,57.3988 100.5,57C 97.8736,53.2281 95.707,49.3948 94,45.5C 103.171,49.0848 111.171,54.4181 118,61.5C 118.078,56.1678 117.078,51.1678 115,46.5C 121.376,51.2086 126.709,56.8753 131,63.5C 131.333,60.1667 131.667,56.8333 132,53.5C 135.12,58.0773 137.454,63.0773 139,68.5C 140,66.5 141,64.5 142,62.5C 142.333,62.8333 142.667,63.1667 143,63.5C 143.814,68.0204 143.647,72.3537 142.5,76.5 Z"/></g>
<g><path style="opacity:1" fill="#ae8358" d="M 84.5,52.5 C 82.2646,52.2053 80.2646,52.5386 78.5,53.5C 76.8042,53.3146 75.4709,52.4813 74.5,51C 78.001,50.9043 81.3343,51.4043 84.5,52.5 Z"/></g>
<g><path style="opacity:0.004" fill="#fefffe" d="M 150.5,62.5 C 151.613,63.9464 151.78,65.6131 151,67.5C 150.506,65.8659 150.34,64.1992 150.5,62.5 Z"/></g>
<g><path style="opacity:1" fill="#838382" d="M 51.5,62.5 C 54.5,63.1667 57.5,63.8333 60.5,64.5C 57.1016,64.8204 53.7683,64.487 50.5,63.5C 50.6236,62.8933 50.9569,62.56 51.5,62.5 Z"/></g>
<g><path style="opacity:1" fill="#c57839" d="M 117.5,82.5 C 118.391,83.1098 119.391,83.4431 120.5,83.5C 120.158,84.3382 119.492,84.6716 118.5,84.5C 113.489,84.6659 108.489,84.4993 103.5,84C 93.6987,80.8992 83.6987,78.7325 73.5,77.5C 68.6322,78.1365 63.9655,79.1365 59.5,80.5C 54.6233,80.64 50.1233,81.9734 46,84.5C 46.0768,82.2285 47.2435,80.5618 49.5,79.5C 55.2809,75.7709 61.2809,72.2709 67.5,69C 73.0802,67.4826 78.7469,67.1492 84.5,68C 93.4144,71.7905 102.081,76.1238 110.5,81C 112.74,81.977 115.073,82.477 117.5,82.5 Z"/></g>
<g><path style="opacity:1" fill="#39504d" d="M 142.5,76.5 C 137.929,74.4703 133.596,71.9703 129.5,69C 122.34,66.6831 118.673,69.1831 118.5,76.5C 118.319,79.1632 118.985,81.4966 120.5,83.5C 119.391,83.4431 118.391,83.1098 117.5,82.5C 117.5,81.8333 117.167,81.5 116.5,81.5C 113.737,70.144 118.07,64.9773 129.5,66C 132.876,69.3562 136.876,71.6895 141.5,73C 142.337,74.0113 142.67,75.1779 142.5,76.5 Z"/></g>
<g><path style="opacity:0.004" fill="#fefffe" d="M 150.5,68.5 C 151.833,69.1667 151.833,69.1667 150.5,68.5 Z"/></g>
<g><path style="opacity:0.004" fill="#cbcbcb" d="M 49.5,70.5 C 48.5084,70.3284 47.8417,70.6618 47.5,71.5C 46.234,70.9101 44.9007,70.4101 43.5,70C 45.7116,69.2109 47.7116,69.3775 49.5,70.5 Z"/></g>
<g><path style="opacity:0.004" fill="#d6d6d6" d="M 151.5,77.5 C 151.338,75.4727 151.505,73.4727 152,71.5C 152.789,73.7116 152.622,75.7116 151.5,77.5 Z"/></g>
<g><path style="opacity:1" fill="#343434" d="M 124.5,72.5 C 125.552,72.3505 126.552,72.5172 127.5,73C 125.185,74.1094 123.685,75.9427 123,78.5C 122.252,76.1599 122.752,74.1599 124.5,72.5 Z"/></g>
<g><path style="opacity:1" fill="#a7542e" d="M 118.5,84.5 C 114.345,86.4022 110.011,88.0689 105.5,89.5C 93.4916,89.1897 81.4916,89.0231 69.5,89C 65.0195,90.0779 61.0195,91.9113 57.5,94.5C 52.5117,96.3278 48.1783,99.1611 44.5,103C 43.6683,103.688 43.0016,103.521 42.5,102.5C 46.7237,94.0531 52.3904,86.7197 59.5,80.5C 63.9655,79.1365 68.6322,78.1365 73.5,77.5C 83.6987,78.7325 93.6987,80.8992 103.5,84C 108.489,84.4993 113.489,84.6659 118.5,84.5 Z"/></g>
<g><path style="opacity:0.004" fill="#fefffe" d="M 154.5,81.5 C 155.833,82.1667 155.833,82.1667 154.5,81.5 Z"/></g>
<g><path style="opacity:0.004" fill="#fefffe" d="M 35.5,82.5 C 36.8333,83.1667 36.8333,83.1667 35.5,82.5 Z"/></g>
<g><path style="opacity:0.004" fill="#cfcfcf" d="M 158.5,84.5 C 159.946,83.3871 161.613,83.2204 163.5,84C 161.866,84.4935 160.199,84.6602 158.5,84.5 Z"/></g>
<g><path style="opacity:1" fill="#0b0c0c" d="M 137.5,84.5 C 139.942,84.1192 140.609,84.7859 139.5,86.5C 140.603,86.9976 141.603,87.3309 142.5,87.5C 140.955,88.4519 139.288,88.7852 137.5,88.5C 137.5,87.1667 137.5,85.8333 137.5,84.5 Z"/></g>
<g><path style="opacity:0.004" fill="#fefffe" d="M 166.5,94.5 C 166.338,92.4727 166.505,90.4727 167,88.5C 167.789,90.7116 167.622,92.7116 166.5,94.5 Z"/></g>
<g><path style="opacity:1" fill="#6f3520" d="M 105.5,89.5 C 103.723,90.6005 101.723,91.4338 99.5,92C 101.5,92.6667 103.5,93.3333 105.5,94C 104.833,94.3333 104.167,94.6667 103.5,95C 90.7201,97.9077 78.0535,101.241 65.5,105C 59.7057,107.966 54.039,111.133 48.5,114.5C 49.4373,107.13 52.7706,100.63 58.5,95C 58.2716,94.6012 57.9382,94.4346 57.5,94.5C 61.0195,91.9113 65.0195,90.0779 69.5,89C 81.4916,89.0231 93.4916,89.1897 105.5,89.5 Z"/></g>
<g><path style="opacity:0.004" fill="#fefffe" d="M 29.5,94.5 C 30.525,94.8966 30.6917,95.5632 30,96.5C 29.5357,95.9056 29.369,95.2389 29.5,94.5 Z"/></g>
<g><path style="opacity:0.004" fill="#fefffe" d="M 165.5,94.5 C 165.833,94.5 166.167,94.5 166.5,94.5C 166.672,95.4916 166.338,96.1583 165.5,96.5C 165.5,95.8333 165.5,95.1667 165.5,94.5 Z"/></g>
<g><path style="opacity:0.004" fill="#fefffe" d="M 164.5,96.5 C 164.833,96.5 165.167,96.5 165.5,96.5C 165.315,97.1701 164.981,97.1701 164.5,96.5 Z"/></g>
<g><path style="opacity:0.004" fill="#fefffe" d="M 33.5,99.5 C 32.8333,100.167 32.8333,100.167 33.5,99.5 Z"/></g>
<g><path style="opacity:0.004" fill="#fefffe" d="M 160.5,100.5 C 161.833,101.167 161.833,101.167 160.5,100.5 Z"/></g>
<g><path style="opacity:0.004" fill="#fefffe" d="M 159.5,101.5 C 159.833,101.5 160.167,101.5 160.5,101.5C 160.315,102.17 159.981,102.17 159.5,101.5 Z"/></g>
<g><path style="opacity:0.004" fill="#4e4e4e" d="M 157.5,103.5 C 157.5,103.167 157.5,102.833 157.5,102.5C 158.167,102.5 158.833,102.5 159.5,102.5C 159.158,103.338 158.492,103.672 157.5,103.5 Z"/></g>
<g><path style="opacity:0.004" fill="#fefffe" d="M 155.5,104.5 C 155.5,104.167 155.5,103.833 155.5,103.5C 156.167,103.5 156.833,103.5 157.5,103.5C 157.158,104.338 156.492,104.672 155.5,104.5 Z"/></g>
<g><path style="opacity:0.004" fill="#b8b8b8" d="M 155.5,104.5 C 154.749,105.573 153.749,105.74 152.5,105C 153.448,104.517 154.448,104.351 155.5,104.5 Z"/></g>
<g><path style="opacity:0.004" fill="#fefffe" d="M 147.5,106.5 C 147.5,106.167 147.5,105.833 147.5,105.5C 152.833,105.833 152.833,106.167 147.5,106.5 Z"/></g>
<g><path style="opacity:0.004" fill="#fefffe" d="M 144.5,106.5 C 145.5,106.5 146.5,106.5 147.5,106.5C 146.5,107.833 145.5,107.833 144.5,106.5 Z"/></g>
<g><path style="opacity:0.004" fill="#dbdbdb" d="M 32.5,106.5 C 33.6291,108.628 33.7958,110.961 33,113.5C 32.5034,111.19 32.3367,108.857 32.5,106.5 Z"/></g>
<g><path style="opacity:0.004" fill="#fefffe" d="M 139.5,107.5 C 140.873,107.343 142.207,107.51 143.5,108C 141.934,108.765 140.601,108.598 139.5,107.5 Z"/></g>
<g><path style="opacity:1" fill="#bcbbbb" d="M 109.5,105.5 C 107.174,107.33 104.507,108.663 101.5,109.5C 100.77,110.934 99.7702,112.1 98.5,113C 85.1418,113.241 71.8085,113.741 58.5,114.5C 60.2726,113.108 62.2726,111.941 64.5,111C 79.6029,109.801 94.6029,107.968 109.5,105.5 Z"/></g>
<g><path style="opacity:1" fill="#dadada" d="M 109.5,107.5 C 111.22,109.658 112.053,112.325 112,115.5C 113.509,116.09 115.009,116.756 116.5,117.5C 114.235,118.647 111.902,118.814 109.5,118C 107.667,116.167 105.833,114.333 104,112.5C 103.383,111.551 103.549,110.718 104.5,110C 106.491,109.626 108.158,108.793 109.5,107.5 Z"/></g>
<g><path style="opacity:0.004" fill="#fefffe" d="M 136.5,108.5 C 137.239,108.369 137.906,108.536 138.5,109C 137.563,109.692 136.897,109.525 136.5,108.5 Z"/></g>
<g><path style="opacity:0.004" fill="#fefffe" d="M 133.5,109.5 C 135.424,109.711 135.757,110.377 134.5,111.5C 134.167,110.833 133.833,110.167 133.5,109.5 Z"/></g>
<g><path style="opacity:1" fill="#655f5e" d="M 117.5,109.5 C 119.288,109.215 120.955,109.548 122.5,110.5C 123.607,113.941 125.94,115.941 129.5,116.5C 123.647,117.695 119.647,115.361 117.5,109.5 Z"/></g>
<g><path style="opacity:1" fill="#514c4b" d="M 65.5,114.5 C 69.4557,114.621 73.1223,115.621 76.5,117.5C 73.5,118.833 70.5,118.833 67.5,117.5C 66.3881,116.735 65.7214,115.735 65.5,114.5 Z"/></g>
<g><path style="opacity:0.004" fill="#fefffe" d="M 138.5,115.5 C 139.833,116.167 139.833,116.167 138.5,115.5 Z"/></g>
<g><path style="opacity:0.006" fill="#fefffe" d="M 38.5,116.5 C 39.404,117.209 39.7373,118.209 39.5,119.5C 39.1667,119.5 38.8333,119.5 38.5,119.5C 38.1667,118.833 37.8333,118.167 37.5,117.5C 38.1667,117.5 38.5,117.167 38.5,116.5 Z"/></g>
<g><path style="opacity:0.004" fill="#fefffe" d="M 139.5,117.5 C 140.833,118.167 140.833,118.167 139.5,117.5 Z"/></g>
<g><path style="opacity:1" fill="#999998" d="M 79.5,118.5 C 80.0431,118.56 80.3764,118.893 80.5,119.5C 76.0162,120.811 71.6829,120.811 67.5,119.5C 71.7016,119.817 75.7016,119.483 79.5,118.5 Z"/></g>
<g><path style="opacity:1" fill="#555555" d="M 119.5,118.5 C 120.043,118.56 120.376,118.893 120.5,119.5C 116.685,120.808 113.019,120.808 109.5,119.5C 113.042,119.813 116.375,119.479 119.5,118.5 Z"/></g>
<g><path style="opacity:0.004" fill="#fefffe" d="M 140.5,119.5 C 141.833,120.167 141.833,120.167 140.5,119.5 Z"/></g>
<g><path style="opacity:0.004" fill="#b8b8b8" d="M 38.5,119.5 C 38.5,120.5 38.5,121.5 38.5,122.5C 38.1667,122.5 37.8333,122.5 37.5,122.5C 37.2627,121.209 37.596,120.209 38.5,119.5 Z"/></g>
<g><path style="opacity:0.005" fill="#e1e1e1" d="M 89.5,120.5 C 92.8499,120.335 96.1832,120.502 99.5,121C 95.9733,121.808 92.6399,121.641 89.5,120.5 Z"/></g>
<g><path style="opacity:0.005" fill="#fefffe" d="M 87.5,123.5 C 86.2267,122.923 86.2267,122.257 87.5,121.5C 88.463,121.97 88.463,122.637 87.5,123.5 Z"/></g>
<g><path style="opacity:0.004" fill="#fefffe" d="M 139.5,121.5 C 140.833,122.167 140.833,122.167 139.5,121.5 Z"/></g>
<g><path style="opacity:0.004" fill="#fefffe" d="M 18.5,123.5 C 16.1432,123.663 13.8098,123.497 11.5,123C 14.0385,122.204 16.3718,122.371 18.5,123.5 Z"/></g>
<g><path style="opacity:0.004" fill="#fefffe" d="M 37.5,122.5 C 37.631,123.239 37.4643,123.906 37,124.5C 36.3083,123.563 36.475,122.897 37.5,122.5 Z"/></g>
<g><path style="opacity:0.004" fill="#000000" d="M 10.5,124.5 C 9.83333,123.167 9.83333,123.167 10.5,124.5 Z"/></g>
<g><path style="opacity:0.004" fill="#fefffe" d="M 18.5,123.5 C 19.8333,124.167 19.8333,124.167 18.5,123.5 Z"/></g>
<g><path style="opacity:0.004" fill="#fefffe" d="M 87.5,123.5 C 88.8333,124.167 88.8333,124.167 87.5,123.5 Z"/></g>
<g><path style="opacity:0.004" fill="#000000" d="M 106.5,124.5 C 105.833,125.167 105.833,125.167 106.5,124.5 Z"/></g>
<g><path style="opacity:0.004" fill="#fefffe" d="M 153.5,125.5 C 155.966,124.366 158.633,124.199 161.5,125C 158.854,125.497 156.187,125.664 153.5,125.5 Z"/></g>
<g><path style="opacity:0.964" fill="#e7e5e4" d="M 65.5,123.5 C 72.3771,123.597 79.0437,123.597 85.5,123.5C 85.8417,124.338 86.5084,124.672 87.5,124.5C 88.968,125.779 89.6347,127.446 89.5,129.5C 90.8333,129.5 92.1667,129.5 93.5,129.5C 94.221,131.382 95.221,131.715 96.5,130.5C 100.819,128.914 104.985,129.247 109,131.5C 113.648,129.727 118.482,129.061 123.5,129.5C 124.836,131.01 126.003,132.677 127,134.5C 128.109,132.185 129.943,130.685 132.5,130C 137.419,129.198 142.252,129.365 147,130.5C 150.346,129.071 153.679,127.737 157,126.5C 159.872,126.01 161.872,127.01 163,129.5C 166.064,128.217 169.397,127.55 173,127.5C 176.167,127.667 179.333,127.833 182.5,128C 176.5,128.333 170.5,128.667 164.5,129C 171.246,129.205 177.913,129.705 184.5,130.5C 187.925,135.185 189.258,140.518 188.5,146.5C 187.814,147.848 186.814,149.015 185.5,150C 181.514,150.499 177.514,150.666 173.5,150.5C 171.833,147.833 170.167,147.833 168.5,150.5C 161.833,150.5 155.167,150.5 148.5,150.5C 147.833,149.167 147.167,149.167 146.5,150.5C 143.615,150.194 140.948,150.527 138.5,151.5C 137.167,151.5 135.833,151.5 134.5,151.5C 132.574,150.514 130.574,149.514 128.5,148.5C 127.452,146.067 126.786,146.067 126.5,148.5C 125.662,148.842 125.328,149.508 125.5,150.5C 124.833,150.5 124.5,150.833 124.5,151.5C 123.833,151.5 123.5,151.833 123.5,152.5C 122.833,152.5 122.5,152.833 122.5,153.5C 121.508,153.328 120.842,153.662 120.5,154.5C 119.508,154.328 118.842,154.662 118.5,155.5C 116.833,155.5 115.167,155.5 113.5,155.5C 111.219,154.686 109.219,153.352 107.5,151.5C 104.232,150.513 100.898,150.18 97.5,150.5C 97.1667,149.167 96.8333,149.167 96.5,150.5C 88.1667,150.5 79.8333,150.5 71.5,150.5C 70.3774,149.243 69.7107,149.576 69.5,151.5C 68.8333,151.5 68.5,151.833 68.5,152.5C 67.8333,152.5 67.5,152.833 67.5,153.5C 66.5084,153.328 65.8417,153.662 65.5,154.5C 62.1501,154.665 58.8168,154.498 55.5,154C 50.2427,150.481 44.576,149.315 38.5,150.5C 35.1667,150.5 31.8333,150.5 28.5,150.5C 28.1667,149.167 27.8333,149.167 27.5,150.5C 22.1667,150.5 16.8333,150.5 11.5,150.5C 10.828,149.733 9.9947,149.066 9,148.5C 8.33333,141.167 8.33333,133.833 9,126.5C 9.71719,125.956 10.2172,125.289 10.5,124.5C 13.2556,125.254 15.9223,125.254 18.5,124.5C 19.968,125.779 20.6347,127.446 20.5,129.5C 21.8333,129.5 23.1667,129.5 24.5,129.5C 25.172,130.267 26.0053,130.934 27,131.5C 29.9036,129.773 33.0703,129.107 36.5,129.5C 38.3576,131.731 40.3576,131.731 42.5,129.5C 43.5,129.5 44.5,129.5 45.5,129.5C 45.4326,128.041 45.7659,126.708 46.5,125.5C 47.1667,125.5 47.5,125.167 47.5,124.5C 50.1873,124.336 52.854,124.503 55.5,125C 56.2931,126.085 56.9598,127.252 57.5,128.5C 61.6621,129.256 65.8287,129.923 70,130.5C 70.7648,130.43 71.2648,130.097 71.5,129.5C 73.8333,129.5 76.1667,129.5 78.5,129.5C 78.6495,128.448 78.4828,127.448 78,126.5C 76.2458,128.25 74.0792,128.917 71.5,128.5C 72.9516,127.698 74.6183,127.198 76.5,127C 73.1667,126.667 69.8333,126.333 66.5,126C 71.1667,125.667 75.8333,125.333 80.5,125C 75.3165,124.826 70.3165,124.326 65.5,123.5 Z M 71.5,129.5 C 71.5,129.167 71.5,128.833 71.5,128.5C 74.0792,128.917 76.2458,128.25 78,126.5C 78.4828,127.448 78.6495,128.448 78.5,129.5C 76.1667,129.5 73.8333,129.5 71.5,129.5 Z M 128.5,148.5 C 127.833,148.5 127.167,148.5 126.5,148.5C 126.786,146.067 127.452,146.067 128.5,148.5 Z M 71.5,150.5 C 70.8333,150.833 70.1667,151.167 69.5,151.5C 69.7107,149.576 70.3774,149.243 71.5,150.5 Z"/></g>
<g><path style="opacity:0.008" fill="#9b9b9b" d="M 107.5,126.5 C 116.991,125.342 126.658,125.175 136.5,126C 126.839,126.5 117.172,126.666 107.5,126.5 Z"/></g>
<g><path style="opacity:0.005" fill="#fefffe" d="M 21.5,126.5 C 22.2891,126.783 22.9558,127.283 23.5,128C 22.184,128.528 21.5173,128.028 21.5,126.5 Z"/></g>
<g><path style="opacity:0.006" fill="#fefffe" d="M 42.5,128.5 C 41.7375,127.732 40.7375,127.232 39.5,127C 41.2588,126.202 42.9255,126.369 44.5,127.5C 44.0431,128.298 43.3764,128.631 42.5,128.5 Z"/></g>
<g><path style="opacity:0.005" fill="#fefffe" d="M 90.5,126.5 C 91.2891,126.783 91.9558,127.283 92.5,128C 91.184,128.528 90.5173,128.028 90.5,126.5 Z"/></g>
<g><path style="opacity:0.004" fill="#fefffe" d="M 6.5,127.5 C 7.65398,133.987 7.82065,140.654 7,147.5C 6.50042,140.842 6.33375,134.175 6.5,127.5 Z"/></g>
<g><path style="opacity:0.008" fill="#bdbdbd" d="M 99.5,128.5 C 101.288,127.378 103.288,127.211 105.5,128C 103.527,128.495 101.527,128.662 99.5,128.5 Z"/></g>
<g><path style="opacity:0.004" fill="#fefffe" d="M 24.5,128.5 C 25.8333,129.167 25.8333,129.167 24.5,128.5 Z"/></g>
<g><path style="opacity:0.006" fill="#fefffe" d="M 36.5,129.5 C 36.8966,128.475 37.5632,128.308 38.5,129C 37.9056,129.464 37.2389,129.631 36.5,129.5 Z"/></g>
<g><path style="opacity:0.004" fill="#fefffe" d="M 42.5,128.5 C 42.5,128.833 42.5,129.167 42.5,129.5C 39.8333,129.167 39.8333,128.833 42.5,128.5 Z"/></g>
<g><path style="opacity:0.004" fill="#fefffe" d="M 93.5,128.5 C 94.8333,129.167 94.8333,129.167 93.5,128.5 Z"/></g>
<g><path style="opacity:0.004" fill="#fefffe" d="M 96.5,129.5 C 96.8966,128.475 97.5632,128.308 98.5,129C 97.9056,129.464 97.2389,129.631 96.5,129.5 Z"/></g>
<g><path style="opacity:0.004" fill="#fefffe" d="M 123.5,128.5 C 124.833,129.167 124.833,129.167 123.5,128.5 Z"/></g>
<g><path style="opacity:1" fill="#121212" d="M 13.5,129.5 C 14.5,129.5 15.5,129.5 16.5,129.5C 16.2011,131.604 16.5344,133.604 17.5,135.5C 19.7016,134.22 21.8683,134.22 24,135.5C 24.4983,138.817 24.665,142.15 24.5,145.5C 23.5,145.5 22.5,145.5 21.5,145.5C 21.5,142.5 21.5,139.5 21.5,136.5C 19.8561,136.286 18.3561,136.62 17,137.5C 16.5026,140.146 16.3359,142.813 16.5,145.5C 15.5,145.5 14.5,145.5 13.5,145.5C 13.5,140.167 13.5,134.833 13.5,129.5 Z"/></g>
<g><path style="opacity:1" fill="#111111" d="M 82.5,129.5 C 83.5,129.5 84.5,129.5 85.5,129.5C 85.2011,131.604 85.5344,133.604 86.5,135.5C 88.7016,134.22 90.8683,134.22 93,135.5C 93.4983,138.817 93.665,142.15 93.5,145.5C 92.5,145.5 91.5,145.5 90.5,145.5C 90.5,142.5 90.5,139.5 90.5,136.5C 88.8561,136.286 87.3561,136.62 86,137.5C 85.5026,140.146 85.3359,142.813 85.5,145.5C 84.5,145.5 83.5,145.5 82.5,145.5C 82.5,140.167 82.5,134.833 82.5,129.5 Z"/></g>
<g><path style="opacity:0.004" fill="#fefffe" d="M 96.5,129.5 C 96.5,129.833 96.5,130.167 96.5,130.5C 95.8299,130.019 95.8299,129.685 96.5,129.5 Z"/></g>
<g><path style="opacity:0.004" fill="#fefffe" d="M 184.5,129.5 C 185.833,130.167 185.833,130.167 184.5,129.5 Z"/></g>
<g><path style="opacity:1" fill="#c0682f" d="M 155.5,130.5 C 156.5,130.5 157.5,130.5 158.5,130.5C 158.5,131.833 158.5,133.167 158.5,134.5C 162.5,135.167 162.5,135.833 158.5,136.5C 158.5,138.833 158.5,141.167 158.5,143.5C 159.5,143.5 160.5,143.5 161.5,143.5C 161.5,144.5 161.5,145.5 161.5,146.5C 159.278,146.822 157.444,146.155 156,144.5C 155.936,141.237 155.102,138.237 153.5,135.5C 155.005,134.158 155.672,132.492 155.5,130.5 Z"/></g>
<g><path style="opacity:1" fill="#161616" d="M 57.5,134.5 C 60.5,134.5 63.5,134.5 66.5,134.5C 66.6658,139.179 66.4992,143.845 66,148.5C 62.8873,150.83 59.7206,150.997 56.5,149C 58.5,148.667 60.5,148.333 62.5,148C 62.9574,147.586 63.2907,147.086 63.5,146.5C 55.3669,145.589 53.3669,141.589 57.5,134.5 Z"/></g>
<g><path style="opacity:1" fill="#c26b33" d="M 173.5,133.5 C 182.883,132.253 186.216,136.253 183.5,145.5C 180.507,146.135 177.507,146.301 174.5,146C 172.675,144.534 172.175,142.701 173,140.5C 175.243,139.029 177.743,138.029 180.5,137.5C 178.257,136.526 175.924,136.192 173.5,136.5C 173.5,135.5 173.5,134.5 173.5,133.5 Z"/></g>
<g><path style="opacity:1" fill="#121212" d="M 71.5,134.5 C 73.8568,134.337 76.1902,134.503 78.5,135C 80.1554,136.444 80.822,138.278 80.5,140.5C 77.8333,140.5 75.1667,140.5 72.5,140.5C 72.33,141.822 72.6634,142.989 73.5,144C 75.7612,144.239 77.7612,144.406 79.5,144.5C 76.0051,147.368 72.8384,147.035 70,143.5C 69.068,140.177 69.568,137.177 71.5,134.5 Z"/></g>
<g><path style="opacity:1" fill="#151515" d="M 113.5,134.5 C 116.167,134.5 118.833,134.5 121.5,134.5C 121.5,138.833 121.5,143.167 121.5,147.5C 121.047,148.458 120.381,149.292 119.5,150C 116.621,150.874 113.955,150.54 111.5,149C 113.81,148.503 116.143,148.337 118.5,148.5C 118.5,147.5 118.5,146.5 118.5,145.5C 111.818,146.175 109.318,143.175 111,136.5C 111.708,135.619 112.542,134.953 113.5,134.5 Z"/></g>
<g><path style="opacity:1" fill="#929292" d="M 113.5,134.5 C 116.287,133.523 119.287,133.19 122.5,133.5C 122.819,138.363 122.486,143.03 121.5,147.5C 121.5,143.167 121.5,138.833 121.5,134.5C 118.833,134.5 116.167,134.5 113.5,134.5 Z"/></g>
<g><path style="opacity:1" fill="#161616" d="M 49.5,129.5 C 50.5,129.5 51.5,129.5 52.5,129.5C 52.5,134.833 52.5,140.167 52.5,145.5C 43.035,148.536 39.535,145.203 42,135.5C 44.3806,134.565 46.8806,134.232 49.5,134.5C 49.5,132.833 49.5,131.167 49.5,129.5 Z"/></g>
<g><path style="opacity:1" fill="#dcdcdc" d="M 45.5,135.5 C 46.8221,135.33 47.9887,135.663 49,136.5C 49.4966,138.81 49.6633,141.143 49.5,143.5C 43.1699,143.59 41.8366,140.924 45.5,135.5 Z"/></g>
<g><path style="opacity:1" fill="#f0f0f0" d="M 58.5,136.5 C 60.1667,136.5 61.8333,136.5 63.5,136.5C 63.5,138.833 63.5,141.167 63.5,143.5C 61.8561,143.714 60.3561,143.38 59,142.5C 58.5045,140.527 58.3379,138.527 58.5,136.5 Z"/></g>
<g><path style="opacity:1" fill="#e9e9e9" d="M 115.5,135.5 C 116.496,135.414 117.329,135.748 118,136.5C 118.497,138.81 118.663,141.143 118.5,143.5C 113.932,143.917 112.432,141.917 114,137.5C 114.717,136.956 115.217,136.289 115.5,135.5 Z"/></g>
<g><path style="opacity:1" fill="#d1a692" d="M 166.5,134.5 C 164.586,137.684 163.92,141.351 164.5,145.5C 165.5,145.5 166.5,145.5 167.5,145.5C 166.432,146.434 165.099,146.768 163.5,146.5C 163.5,142.167 163.5,137.833 163.5,133.5C 164.791,133.263 165.791,133.596 166.5,134.5 Z"/></g>
<g><path style="opacity:1" fill="#c0692d" d="M 167.5,145.5 C 166.5,145.5 165.5,145.5 164.5,145.5C 163.92,141.351 164.586,137.684 166.5,134.5C 167.93,134.579 169.264,134.246 170.5,133.5C 171.386,134.325 171.719,135.325 171.5,136.5C 170.167,136.5 168.833,136.5 167.5,136.5C 167.5,139.5 167.5,142.5 167.5,145.5 Z"/></g>
<g><path style="opacity:0.004" fill="#e2e2e2" d="M 189.5,146.5 C 189.335,143.482 189.502,140.482 190,137.5C 190.805,140.696 190.638,143.696 189.5,146.5 Z"/></g>
<g><path style="opacity:1" fill="#c4c4c3" d="M 73.5,135.5 C 76.5,135.167 77.8333,136.5 77.5,139.5C 75.8333,139.5 74.1667,139.5 72.5,139.5C 72.4326,138.041 72.7659,136.708 73.5,135.5 Z"/></g>
<g><path style="opacity:1" fill="#c0692f" d="M 133.5,133.5 C 138.682,133.018 141.349,135.351 141.5,140.5C 138.833,140.5 136.167,140.5 133.5,140.5C 133.5,141.5 133.5,142.5 133.5,143.5C 136.073,143.148 138.406,143.648 140.5,145C 132.95,147.984 129.45,145.484 130,137.5C 130.69,135.65 131.856,134.316 133.5,133.5 Z"/></g>
<g><path style="opacity:1" fill="#ead2c8" d="M 134.5,135.5 C 140.057,137.989 139.724,139.322 133.5,139.5C 133.433,138.041 133.766,136.708 134.5,135.5 Z"/></g>
<g><path style="opacity:1" fill="#462210" d="M 124.5,138.5 C 125.675,138.281 126.675,138.614 127.5,139.5C 125.948,140.798 124.948,140.465 124.5,138.5 Z"/></g>
<g><path style="opacity:1" fill="#be6223" d="M 142.5,135.5 C 144.264,134.288 145.93,134.621 147.5,136.5C 148.5,135.833 149.5,135.167 150.5,134.5C 150.833,134.833 151.167,135.167 151.5,135.5C 148.713,138.979 149.046,142.145 152.5,145C 150.094,145.779 148.427,144.946 147.5,142.5C 146.573,144.946 144.906,145.779 142.5,145C 146.457,141.704 146.457,138.537 142.5,135.5 Z"/></g>
<g><path style="opacity:1" fill="#f0e2db" d="M 175.5,140.5 C 177.167,140.5 178.833,140.5 180.5,140.5C 180.5,141.5 180.5,142.5 180.5,143.5C 178.833,143.5 177.167,143.5 175.5,143.5C 175.5,142.5 175.5,141.5 175.5,140.5 Z"/></g>
<g><path style="opacity:1" fill="#121212" d="M 29.5,134.5 C 31.8568,134.337 34.1902,134.503 36.5,135C 38.1554,136.444 38.822,138.278 38.5,140.5C 35.8333,140.5 33.1667,140.5 30.5,140.5C 30.33,141.822 30.6634,142.989 31.5,144C 33.7612,144.239 35.7612,144.406 37.5,144.5C 34.0051,147.368 30.8384,147.035 28,143.5C 27.068,140.177 27.568,137.177 29.5,134.5 Z"/></g>
<g><path style="opacity:1" fill="#d5d6d5" d="M 30.5,136.5 C 32.1667,136.5 33.8333,136.5 35.5,136.5C 35.5,137.5 35.5,138.5 35.5,139.5C 33.8333,139.5 32.1667,139.5 30.5,139.5C 30.5,138.5 30.5,137.5 30.5,136.5 Z"/></g>
<g><path style="opacity:1" fill="#202020" d="M 98.5,134.5 C 107.99,133.138 110.657,136.638 106.5,145C 100.657,148.05 97.3238,146.383 96.5,140C 96.3948,137.822 97.0615,135.988 98.5,134.5 Z"/></g>
<g><path style="opacity:1" fill="#dcdcdc" d="M 101.5,135.5 C 105.146,136.462 106.313,138.795 105,142.5C 101.474,145.545 99.6403,144.711 99.5,140C 99.7586,138.213 100.425,136.713 101.5,135.5 Z"/></g>
<g><path style="opacity:0.004" fill="#fefffe" d="M 188.5,146.5 C 188.833,146.5 189.167,146.5 189.5,146.5C 189.167,149.167 188.833,149.167 188.5,146.5 Z"/></g>
<g><path style="opacity:0.004" fill="#fefffe" d="M 126.5,148.5 C 127.167,148.5 127.833,148.5 128.5,148.5C 128.167,149.5 127.5,150.167 126.5,150.5C 126.5,149.833 126.5,149.167 126.5,148.5 Z"/></g>
<g><path style="opacity:0.004" fill="#fefffe" d="M 11.5,150.5 C 11.5,150.833 11.5,151.167 11.5,151.5C 10.8299,151.019 10.8299,150.685 11.5,150.5 Z"/></g>
<g><path style="opacity:0.004" fill="#fefffe" d="M 27.5,150.5 C 27.8333,150.5 28.1667,150.5 28.5,150.5C 28.3147,151.17 27.9813,151.17 27.5,150.5 Z"/></g>
<g><path style="opacity:0.004" fill="#fefffe" d="M 38.5,151.5 C 38.5,151.167 38.5,150.833 38.5,150.5C 42.5,150.833 42.5,151.167 38.5,151.5 Z"/></g>
<g><path style="opacity:0.004" fill="#fefffe" d="M 96.5,150.5 C 96.8333,150.5 97.1667,150.5 97.5,150.5C 97.3147,151.17 96.9813,151.17 96.5,150.5 Z"/></g>
<g><path style="opacity:0.004" fill="#fefffe" d="M 125.5,150.5 C 125.833,150.5 126.167,150.5 126.5,150.5C 126.315,151.17 125.981,151.17 125.5,150.5 Z"/></g>
<g><path style="opacity:0.004" fill="#fefffe" d="M 146.5,151.5 C 146.5,151.167 146.5,150.833 146.5,150.5C 147.167,150.5 147.833,150.5 148.5,150.5C 148.5,150.833 148.5,151.167 148.5,151.5C 147.833,151.5 147.167,151.5 146.5,151.5 Z"/></g>
<g><path style="opacity:0.004" fill="#fefffe" d="M 168.5,151.5 C 168.5,151.167 168.5,150.833 168.5,150.5C 171.167,150.833 171.167,151.167 168.5,151.5 Z"/></g>
<g><path style="opacity:0.006" fill="#fefffe" d="M 173.5,150.5 C 173.5,150.833 173.5,151.167 173.5,151.5C 170.833,151.167 170.833,150.833 173.5,150.5 Z"/></g>
<g><path style="opacity:0.004" fill="#d8d8d8" d="M 11.5,151.5 C 16.5111,151.334 21.5111,151.501 26.5,152C 21.3158,152.816 16.3158,152.65 11.5,151.5 Z"/></g>
<g><path style="opacity:0.007" fill="#f1f1f1" d="M 38.5,151.5 C 35.6965,152.638 32.6965,152.805 29.5,152C 32.4816,151.502 35.4816,151.335 38.5,151.5 Z"/></g>
<g><path style="opacity:0.004" fill="#eeeeee" d="M 42.5,152.5 C 45.3035,151.362 48.3035,151.195 51.5,152C 48.5184,152.498 45.5184,152.665 42.5,152.5 Z"/></g>
<g><path style="opacity:0.006" fill="#f5f5f5" d="M 71.5,152.5 C 73.9664,151.366 76.633,151.199 79.5,152C 76.854,152.497 74.1873,152.664 71.5,152.5 Z"/></g>
<g><path style="opacity:0.004" fill="#eeeeee" d="M 96.5,151.5 C 91.3497,152.651 86.0164,152.817 80.5,152C 85.8229,151.501 91.1563,151.334 96.5,151.5 Z"/></g>
<g><path style="opacity:0.004" fill="#fefffe" d="M 98.5,152.5 C 100.966,151.366 103.633,151.199 106.5,152C 103.854,152.497 101.187,152.664 98.5,152.5 Z"/></g>
<g><path style="opacity:0.004" fill="#fefffe" d="M 124.5,151.5 C 124.833,151.5 125.167,151.5 125.5,151.5C 125.315,152.17 124.981,152.17 124.5,151.5 Z"/></g>
<g><path style="opacity:0.004" fill="#fefffe" d="M 134.5,151.5 C 133.749,152.573 132.749,152.74 131.5,152C 132.448,151.517 133.448,151.351 134.5,151.5 Z"/></g>
<g><path style="opacity:0.004" fill="#fefffe" d="M 138.5,151.5 C 141.167,151.5 143.833,151.5 146.5,151.5C 143.833,152.833 141.167,152.833 138.5,151.5 Z"/></g>
<g><path style="opacity:0.008" fill="#bdbdbd" d="M 148.5,151.5 C 150.527,151.338 152.527,151.505 154.5,152C 152.288,152.789 150.288,152.622 148.5,151.5 Z"/></g>
<g><path style="opacity:0.005" fill="#f8f8f8" d="M 168.5,151.5 C 164.689,152.645 160.689,152.812 156.5,152C 160.486,151.501 164.486,151.334 168.5,151.5 Z"/></g>
<g><path style="opacity:0.004" fill="#fefffe" d="M 173.5,151.5 C 177.514,151.334 181.514,151.501 185.5,152C 181.311,152.812 177.311,152.645 173.5,151.5 Z"/></g>
<g><path style="opacity:0.004" fill="#fefffe" d="M 68.5,152.5 C 69.8333,153.167 69.8333,153.167 68.5,152.5 Z"/></g>
<g><path style="opacity:0.004" fill="#fefffe" d="M 123.5,152.5 C 123.833,152.5 124.167,152.5 124.5,152.5C 124.315,153.17 123.981,153.17 123.5,152.5 Z"/></g>
<g><path style="opacity:0.004" fill="#fefffe" d="M 67.5,153.5 C 67.8333,153.5 68.1667,153.5 68.5,153.5C 68.3147,154.17 67.9813,154.17 67.5,153.5 Z"/></g>
<g><path style="opacity:0.004" fill="#fefffe" d="M 122.5,153.5 C 122.833,153.5 123.167,153.5 123.5,153.5C 123.315,154.17 122.981,154.17 122.5,153.5 Z"/></g>
<g><path style="opacity:0.004" fill="#fefffe" d="M 65.5,155.5 C 65.5,155.167 65.5,154.833 65.5,154.5C 66.1667,154.5 66.8333,154.5 67.5,154.5C 67.1583,155.338 66.4916,155.672 65.5,155.5 Z"/></g>
<g><path style="opacity:0.004" fill="#fefffe" d="M 120.5,155.5 C 120.5,155.167 120.5,154.833 120.5,154.5C 121.167,154.5 121.833,154.5 122.5,154.5C 122.158,155.338 121.492,155.672 120.5,155.5 Z"/></g>
<g><path style="opacity:0.004" fill="#f0f0f0" d="M 65.5,155.5 C 62.3601,156.641 59.0267,156.808 55.5,156C 58.8168,155.502 62.1501,155.335 65.5,155.5 Z"/></g>
<g><path style="opacity:0.004" fill="#fefffe" d="M 113.5,155.5 C 113.5,155.833 113.5,156.167 113.5,156.5C 109.5,156.167 109.5,155.833 113.5,155.5 Z"/></g>
<g><path style="opacity:0.004" fill="#fefffe" d="M 118.5,155.5 C 119.167,155.5 119.833,155.5 120.5,155.5C 119.833,156.833 119.167,156.833 118.5,155.5 Z"/></g>
<g><path style="opacity:0.004" fill="#909090" d="M 113.5,156.5 C 114.873,156.343 116.207,156.51 117.5,157C 115.934,157.765 114.601,157.598 113.5,156.5 Z"/></g>
</svg>
